<svg xmlns="http://www.w3.org/2000/svg" id="svg8" width="882.78" height="248.09" version="1.1" viewBox="0 0 233.569 65.64"><defs id="defs2"><linearGradient id="Degradado_sin_nombre_16" x1="-430.83" x2="-429.61" y1="1112.99" y2="1112.99" data-name="Degradado sin nombre 16" gradientTransform="matrix(0 144.31 144.31 0 -160134.18 62451.3)" gradientUnits="userSpaceOnUse"><stop id="stop15" offset="0" stop-color="#a8c145"/><stop id="stop17" offset=".02" stop-color="#b2c543"/><stop id="stop19" offset=".07" stop-color="#c0cb42"/><stop id="stop21" offset=".13" stop-color="#c9cf41"/><stop id="stop23" offset=".22" stop-color="#ccd141"/><stop id="stop25" offset="1" stop-color="#ccd141"/></linearGradient><linearGradient id="Degradado_sin_nombre_15" x1="-423.01" x2="-421.79" y1="1107.72" y2="1107.72" data-name="Degradado sin nombre 15" gradientTransform="matrix(125.11 0 0 -125.11 53370.37 138951.54)" gradientUnits="userSpaceOnUse"><stop id="stop31" offset="0" stop-color="#95b94c"/><stop id="stop33" offset="1" stop-color="#508c46"/></linearGradient><clipPath id="clippath"><path id="path12" d="M433.99 291.35c-9.7 5.46-38.44 21.62-37.63 43.56.23 6.25 2.8 11.36 5.17 14.91a555.316 555.316 0 0 0 99.18-15.48c-4.36-2.72-8.73-5.45-13.1-8.17 2.04-1.22 4.08-2.44 6.13-3.66 5.04 1.59 10.09 3.17 15.13 4.76.88-.56 1.66-.92 2.21-1.13 1.27-.49 2.28-.89 3.09-.43.24.14.37.3.88 1.08.44.67.94 1.46 1.48 2.36 10.94-2.64 24.1-6.96 38.09-14.22 6.63-3.44 12.52-7.06 17.71-10.63-7.51-6.3-19.97-15.3-37.26-21.5-1.65-.59-18.64-6.4-41.75-6.4-17.59 0-38.73 3.36-59.33 14.95" class="st2"/></clipPath><clipPath id="clippath-1"><path id="path28" d="M537.57 322.53a172.74 172.74 0 0 1-21.04 6.61c2.43 1.12 4.87 2.24 7.3 3.36 13.98-5.44 19.64-3.28 19.64-3.28-.41.67-.92 1.41-1.57 2.16a15.874 15.874 0 0 1-4.1 3.35c-.64.46-1.35.95-2.14 1.43s-1.63.99-2.62 1.43c-2.24.98-3.84 1.18-3.84 1.18-.65 1.39-1.29 2.79-1.94 4.18.38.42.96 1.05 1.68 1.78 1.45 1.48 2.05 1.93 1.97 2.56-.06.45-.43.72-1.18 1.28-.92.68-1.45.75-2.49 1.34-.42.24-1.02.63-1.68 1.2-.24 1.34-.46 2.71-.69 4.09-.28 1.73-.53 3.43-.77 5.12l-8.97 2.85a526.035 526.035 0 0 1-1.08-18.49c-6.89 1.97-16.14 5.21-16.14 5.21s-.43.16-1.28.49c-.16 1.87-.33 3.74-.49 5.61 0 0-5.77 1.34-5.9 1.57-.13.23-.11-2.99-.2-4.53-5.77 2.12-53.64 20.14-51.56 40.14.2 1.91.79 3.25 1.3 4.37 9.39 20.65 55.79 17.78 63.83 17.28 17.86-1.11 39.42-2.44 59.61-18.36 8.21-6.47 26.33-20.77 28.15-45.19 1.94-26.04-16.1-44.11-19.05-46.97a171.994 171.994 0 0 1-34.76 18.23" class="st2"/></clipPath><style id="style10">.st2{fill:none}.st3{fill:#625e4c}.st7{fill:#605e4c}</style></defs><g id="layer1" transform="translate(4.148 -4.221)"><g id="g142" transform="matrix(.26458 0 0 .26458 -56.694 -68.79)"><path id="path38" d="m410.4 280.71-8.31 25.73c-16.4-1.58-28.48-2.5-36.24-2.77-10.86 0-19.95.23-27.26.69-7.31.46-14.96 1.45-22.94 2.97-7.98 1.52-14.96 3.89-20.95 7.12a54.945 54.945 0 0 0-15.63 12.57c-9.53 11.08-14.3 22.76-14.3 35.03 0 10.95 5.43 18.6 16.29 22.95 10.86 4.35 26.04 6.53 45.55 6.53 14.4 0 31.58-.92 51.53-2.77l-7.98 24.74c-21.5 3.7-44.33 5.54-68.49 5.54-30.37 0-55.14-4.75-74.31-14.25-19.18-9.5-28.76-22.89-28.76-40.17 0-20.84 10.97-39.64 32.92-56.4 21.94-16.75 49.87-26.65 83.78-29.68 11.75-1.05 21.72-1.58 29.92-1.58 27.93 0 49.65 1.26 65.16 3.76" class="st3"/><path id="path40" d="m751.6 360.08-1.63 2.57 41.53 54.03h-70.31l-31.07-46.31h-27.47l-14.72 46.31h-61.81l43.5-138.53h110.87c48.18 0 72.28 10.69 72.28 32.06 0 12.27-5.4 22.89-16.19 31.86-10.79 8.97-25.78 14.98-44.97 18.01m-4.92-42.94c0-5.41-2.78-9.1-8.34-11.08-5.56-1.98-13.25-2.97-23.06-2.97h-31.72l-13.41 42.15h31.72c18.75 0 31.07-3.36 36.95-10.09 5.23-5.94 7.85-11.94 7.85-18.01" class="st3"/><path id="polygon42" d="M835.94 278.73h56.36l-39.66 138.53h-56.37z" class="st3"/><path id="path44" d="m1081.38 279.92-8.84 26.91c-27.27-3.03-47.34-4.62-60.21-4.75-5.24 0-10.47.2-15.71.59-5.24.39-10.91 1.12-17.02 2.18-6.11 1.06-11.02 2.77-14.72 5.14-3.71 2.38-5.56 5.21-5.56 8.51 0 1.85 1.42 3.63 4.25 5.34 2.4 1.58 7.96 3.1 16.69 4.55l30.1 3.76c8.29 1.06 15.38 2.21 21.27 3.46 5.89 1.25 11.83 2.97 17.83 5.14 6 2.18 10.58 5.08 13.74 8.71 3.16 3.63 4.75 7.88 4.75 12.76 0 10.56-5.02 20.45-15.05 29.68-10.04 9.24-23.13 16.1-39.27 20.58-18.98 5.28-41.23 7.92-66.75 7.92-22.47 0-49.85-1.72-82.13-5.14l8.83-27.31c23.12 4.09 48.54 6.14 76.24 6.14 25.3 0 41.23-3.76 47.77-11.28 1.74-2.38 2.62-4.55 2.62-6.53 0-4.88-6.22-8.51-18.65-10.88-5.24-.79-11.24-1.52-18-2.18-7.85-.53-12.33-.92-13.42-1.19-8.29-.92-15.54-2.04-21.76-3.36-6.22-1.32-12.33-3.13-18.32-5.44-6-2.31-10.58-5.34-13.74-9.1-3.17-3.76-4.74-8.14-4.74-13.16 0-9.1 3.87-17.74 11.62-25.93 7.74-8.18 18.05-14.51 30.92-19 18.98-6.73 44.17-10.09 75.59-10.09 19.19 0 43.08 1.32 71.66 3.96" class="st3"/><path id="path46" d="M283.15 506.12c-.11-2.79.51-7.72 1.46-13.31h-.22c-6.08 10.53-13.57 14.37-21.61 14.38-9.12.03-14.4-6.28-14.42-14.19-.06-15.91 14.15-32.51 34.75-32.57 4.29 0 8.9.53 12.01 1.27l-5.07 23.28c-2 9.03-2.52 16.56-2.18 21.12h-4.72zm6.51-41.32c-1.29-.37-3.54-.74-7.4-.72-15.66.04-28.81 13.1-28.86 28.17-.08 5.3 1.97 11.35 10.44 11.32 9.22-.02 19.8-10.75 22.44-23.22z" class="st7"/><path id="path48" d="M302.12 500.77c2.15 1.29 5.91 2.59 9.66 2.58 6.97-.01 11.79-4.31 11.78-9.34-.03-4.28-1.96-6.87-7.66-9.83-5.91-3.06-8.28-7.05-8.3-11.06-.03-6.88 6.82-12.76 16.04-12.78 3.86 0 7.62 1.1 9.23 2.11l-1.81 3.54c-1.51-.84-4.51-2.04-7.95-2.03-6.23.02-10.71 3.84-10.7 8.5.01 4.18 2.7 6.41 7.54 9 5.8 3.06 8.49 7.14 8.51 11.42.03 8.84-8 14.07-17.11 14.1-4.93.01-9.13-1.47-10.95-2.76l1.7-3.45z" class="st7"/><path id="path50" d="m339.79 505.98 9.72-44.69h4.82l-9.71 44.68h-4.83zm14.51-53.72c-2.25 0-3.54-1.76-3.55-3.72.1-2.05 1.7-3.82 4.07-3.83 2.35 0 3.76 1.67 3.76 3.81-.21 1.95-1.6 3.72-4.17 3.74h-.12z" class="st7"/><path id="path52" d="M361.34 500.62c2.15 1.3 5.91 2.59 9.66 2.58 6.97-.03 11.78-4.32 11.76-9.33-.01-4.28-1.95-6.89-7.65-9.85-5.91-3.05-8.28-7.05-8.3-11.05-.02-6.89 6.82-12.76 16.04-12.79 3.86-.01 7.62 1.09 9.24 2.11l-1.82 3.54c-1.51-.83-4.51-2.04-7.94-2.03-6.22.01-10.72 3.84-10.7 8.5.01 4.18 2.7 6.41 7.53 9 5.8 3.06 8.5 7.15 8.52 11.43.03 8.84-7.99 14.06-17.11 14.09-4.93.01-9.13-1.47-10.95-2.77l1.7-3.44z" class="st7"/><path id="path54" d="m417.58 451.25-2.11 9.87 13.08-.04-.74 3.44-13.19.04-5.49 25.79c-.63 2.97-1.05 5.31-1.04 8.1 0 2.97 1.73 4.64 5.16 4.64 1.71 0 3.1-.11 4.18-.48l.44 3.35c-1.39.47-3.43.75-5.57.76-6.97.01-9.23-4.16-9.25-8.07-.01-2.7.41-5.3 1.15-8.47l5.6-25.6-7.83.02.74-3.44 7.94-.03 1.68-8.19 5.25-1.68z" class="st7"/><path id="path56" d="M463.78 503.05c-2.67 1.49-8.03 3.56-15.64 3.58-13.08.03-18.05-8.61-18.08-17.35-.05-13.31 11.59-29.25 26.93-29.29 9.33-.03 13.31 4.99 13.33 10.2.04 11.91-16.68 14.37-34.82 14.23-.73 2.33-.51 7.91.69 10.98 2.17 5.12 6.68 7.62 12.57 7.6 6.45-.02 10.94-1.9 13.51-3.3zm1.6-32.66c-.01-4.47-3.88-6.79-9.25-6.77-9.33.03-17.14 8.43-19.89 17.27 15.23.15 29.17-1.66 29.14-10.4z" class="st7"/><path id="path58" d="m475.7 505.62 6.97-32.68c1.05-4.47 1.68-8.46 2.21-12h4.5l-1.58 9.57h.22c4.48-6.53 11.76-10.64 19.81-10.66 4.61 0 12.87 2.11 12.91 12.44 0 2.04-.42 4.56-.94 7.07l-5.6 26.15-4.82.02 5.7-26.54c.32-1.86.74-4.09.73-6.14-.02-5.3-2.5-9.3-9.9-9.28-7.29.02-18.21 7.3-20.64 19.13l-4.75 22.89h-4.83z" class="st7"/><path id="path60" d="M564.93 503.35c-2.25 1.02-7.71 3-15.22 3.01-13.62.04-18.69-8.32-18.72-16.51-.05-14.88 12.45-30.08 30.25-30.13 5.04-.02 9.76 1.55 10.84 2.39l-1.71 3.54c-2.26-1.01-5.48-2.03-9.87-2.02-15.02.04-24.51 13.65-24.48 25.55.03 7.92 4.34 13.58 14.52 13.55 5.79-.02 10.4-1.7 12.97-2.91l1.4 3.53z" class="st7"/><path id="path62" d="m575.68 505.37 9.71-44.69h4.82l-9.71 44.68h-4.83zm14.5-53.72c-2.25 0-3.55-1.76-3.55-3.72.1-2.05 1.7-3.83 4.06-3.83 2.36 0 3.76 1.67 3.76 3.81-.2 1.95-1.59 3.72-4.16 3.74z" class="st7"/><path id="path64" d="M632.19 505.22c-.11-2.79.51-7.72 1.46-13.31h-.22c-6.08 10.53-13.56 14.37-21.61 14.38-9.12.03-14.4-6.28-14.42-14.2-.05-15.91 14.15-32.51 34.75-32.56 4.29-.01 8.9.54 12.01 1.27l-5.07 23.28c-2.01 9.03-2.52 16.57-2.18 21.12h-4.72zm6.51-41.33c-1.29-.37-3.54-.74-7.4-.73-15.67.04-28.81 13.1-28.86 28.17-.09 5.31 1.97 11.35 10.44 11.34 9.22-.03 19.8-10.75 22.44-23.23z" class="st7"/><path id="path66" d="M705.47 505.03c-.12-2.79.5-7.72 1.45-13.31h-.21c-6.08 10.53-13.57 14.36-21.61 14.39-9.12.02-14.4-6.29-14.43-14.2-.05-15.91 14.16-32.52 34.75-32.56 4.29-.01 8.9.53 12.01 1.27l-5.07 23.28c-2 9.03-2.51 16.57-2.17 21.12h-4.72zm6.5-41.32c-1.29-.37-3.54-.74-7.41-.73-15.65.04-28.81 13.1-28.86 28.17-.09 5.31 1.97 11.35 10.44 11.33 9.22-.03 19.8-10.75 22.44-23.22l3.38-15.55z" class="st7"/><path id="polygon68" d="m724.99 504.97 14.36-66.09 4.83-.01-14.36 66.1z" class="st7"/><path id="path70" d="m772.89 460.2 5.79 29.11c.99 4.83 1.75 8.37 1.86 10.22h.32c.96-1.86 2.24-4.47 5.33-9.32l18.88-30.1h5.14l-28.48 44.72h-4.5l-9.17-44.63z" class="st7"/><path id="path72" d="m811.45 504.76 9.71-44.69h4.82l-9.71 44.68h-4.82zm14.5-53.72c-2.25 0-3.54-1.76-3.55-3.72.1-2.05 1.7-3.82 4.06-3.83 2.36 0 3.76 1.67 3.77 3.81-.21 1.95-1.6 3.73-4.17 3.74z" class="st7"/><path id="path74" d="M867.97 504.61c-.12-2.79.52-7.73 1.46-13.31h-.22c-6.07 10.53-13.57 14.36-21.62 14.38-9.12.03-14.39-6.29-14.42-14.2-.05-15.91 14.16-32.51 34.75-32.57 4.29 0 8.9.54 12.01 1.28l-5.08 23.27c-2 9.03-2.51 16.57-2.17 21.13h-4.72zm6.5-41.33c-1.28-.37-3.54-.74-7.39-.72-15.66.04-28.81 13.1-28.87 28.17-.08 5.31 1.97 11.34 10.45 11.32 9.22-.03 19.8-10.75 22.44-23.23z" class="st7"/><path id="path76" d="m901.93 459.86-9.82 45.34c-1.58 7.35-3.28 11.92-6.16 14.72-2.77 2.7-6.53 4.11-10.39 4.12-2.15 0-3.65-.08-4.94-.46l.63-3.54c.87.18 2.47.37 4.51.36 5.04-.02 8.89-2.91 11-12.96l10.35-47.57h4.83zm-.46-9.03c-2.25.01-3.54-1.76-3.55-3.71.1-2.04 1.7-3.81 4.06-3.82 2.36 0 3.75 1.67 3.77 3.81-.21 1.96-1.6 3.73-4.18 3.73h-.11z" class="st7"/><path id="path78" d="M942.07 501.82c-2.67 1.49-8.02 3.55-15.64 3.58-13.08.03-18.05-8.61-18.07-17.35-.05-13.31 11.59-29.25 26.92-29.29 9.33-.03 13.32 4.99 13.33 10.2.05 11.9-16.68 14.37-34.8 14.23-.74 2.33-.51 7.91.68 10.98 2.16 5.11 6.68 7.61 12.58 7.6 6.43-.01 10.93-1.89 13.5-3.29l1.5 3.35zm1.62-32.67c-.02-4.47-3.89-6.79-9.25-6.77-9.33.03-17.13 8.42-19.89 17.27 15.23.15 29.17-1.66 29.14-10.4v-.09z" class="st7"/><path id="path80" d="m954 504.39 6.55-30.17a265.77 265.77 0 0 0 2.52-14.52h4.4c-.53 3.16-.95 6.32-1.68 10.04h.32c3.2-6.24 8.54-11.09 15.3-11.11.74 0 1.82.09 2.35.18l-.94 4.29c-.54-.09-1.3-.19-2.36-.19-6.45.02-14.67 8.41-16.99 19.77l-4.65 21.69z" class="st7"/><path id="path82" d="M1003.02 505.28c-12.76.04-19.12-8.88-19.16-18.18-.05-14.33 11.38-28.51 27.15-28.55 13.84-.03 19.13 9.63 19.16 18.65.05 12.19-10.2 28.03-27.04 28.08zm.63-3.62c11.69-.03 21.52-12.43 21.47-24.53-.02-5.86-3.26-14.97-14.52-14.94-12.54.03-21.73 12.24-21.69 24.53.03 8.56 5.73 14.97 14.64 14.94z" class="st7"/><g id="g86" clip-path="url(#clippath)" style="clip-path:url(#clippath)"><path id="rect84" d="M389.12 255.13h189.64v115.95H389.12z" style="fill:url(#Degradado_sin_nombre_16)" transform="rotate(-14.73 483.759 313.016)"/></g><path id="path88" d="M401.53 349.82c2.36 1.81 6.07 4.32 11.02 6.3 4.94 1.97 14.72 4.85 41.98-.53 8.07-1.59 18.9-4.15 31.48-8.4-2.1-1.14-4.2-2.27-6.3-3.41l6.04-2.23c2.49.66 4.98 1.31 7.47 1.97 4.86-1.97 9.71-3.93 14.57-5.9l-7.08-3.28a555.444 555.444 0 0 1-99.17 15.48" style="fill:#689f45"/><g id="g92" clip-path="url(#clippath-1)" style="clip-path:url(#clippath-1)"><path id="rect90" d="M417.94 268.46H611.8v185.57H417.94z" style="fill:url(#Degradado_sin_nombre_15)" transform="rotate(-37.17 514.895 361.253)"/></g></g></g></svg>