<svg width="155" height="39" viewBox="0 0 155 39" fill="none" xmlns="http://www.w3.org/2000/svg">
<path d="M70.9274 19.3346C70.9274 19.5385 70.8414 19.6404 70.6693 19.6404H68.0077C67.8348 19.6404 67.7488 19.5385 67.7496 19.3346L68.4795 6.89763C68.4795 6.67812 68.5734 6.56836 68.7611 6.56836H71.0225C72.1992 6.56836 72.8974 6.98395 73.1172 7.81514L74.813 14.3043L76.7681 6.89763C76.8299 6.67812 76.955 6.56836 77.1436 6.56836H79.3568C79.8904 6.56836 80.3301 6.71717 80.6759 7.01478C81.0209 7.31322 81.2016 7.70538 81.2181 8.19127L81.8294 19.3346C81.8294 19.5385 81.7512 19.6404 81.5948 19.6404H78.9566C78.7533 19.6404 78.6516 19.5385 78.6516 19.3346L78.2984 12.1412L76.3198 19.3346C76.2728 19.5385 76.1551 19.6404 75.9665 19.6404H73.5656C73.3926 19.6404 73.2749 19.5385 73.2123 19.3346L71.3041 12.1647L70.9274 19.3346Z" fill="#6AB33F"/>
<path fill-rule="evenodd" clip-rule="evenodd" d="M86.493 17.0495C86.8611 17.3003 87.3193 17.4256 87.8677 17.4256C88.6663 17.4256 89.5828 17.1987 90.6169 16.7449C90.789 16.6668 90.9224 16.6277 91.0171 16.6277C91.2048 16.6277 91.2987 16.7449 91.2987 16.9792C91.2987 17.6057 91.0558 18.1845 90.57 18.7156C89.8495 19.4826 88.7763 19.8662 87.3502 19.8662C86.0188 19.8653 84.9381 19.4896 84.1081 18.739C83.1365 17.879 82.6507 16.6668 82.6507 15.1023C82.6507 13.8197 83.0031 12.7407 83.7079 11.8651C84.57 10.8325 85.7528 10.3162 87.2563 10.3162C88.5572 10.3162 89.5836 10.6915 90.3353 11.4421C91.1027 12.2083 91.4864 13.2015 91.4864 14.4215C91.4864 14.766 91.4708 15.1573 91.4395 15.5955V15.7127C91.4082 15.947 91.2596 16.0642 90.9936 16.0642H85.8236C85.9018 16.4711 86.125 16.7996 86.493 17.0495ZM88.3716 14.091C88.4185 13.7318 88.3246 13.4308 88.09 13.1883C87.8545 12.9458 87.5255 12.8245 87.1031 12.8245C86.7112 12.8245 86.3901 12.9458 86.1398 13.1883C85.8887 13.4308 85.7553 13.7318 85.7396 14.091H88.3716Z" fill="#6AB33F"/>
<path d="M95.971 10.8476C96.2905 10.7078 96.7545 10.6379 97.3629 10.6379H97.9768C98.1472 10.6379 98.2324 10.7386 98.2324 10.9401V13.1722C98.2324 13.3736 98.1472 13.4743 97.9768 13.4743H97.4197C96.6606 13.4743 96.1419 13.6215 95.8636 13.9158C95.6314 14.1953 95.5153 14.7766 95.5153 15.6596V19.3358C95.5153 19.5047 95.3782 19.6404 95.2102 19.6404H92.7327C92.5647 19.6404 92.4276 19.5047 92.4276 19.3358V10.9438C92.4276 10.7748 92.5647 10.6379 92.7327 10.6379H93.1526C94.1349 10.6379 94.7977 10.9491 95.141 11.5715C95.3749 11.2295 95.6515 10.9882 95.971 10.8476Z" fill="#6AB33F"/>
<path d="M99.3921 7.08019C99.7215 6.74393 100.121 6.57581 100.59 6.57581C101.045 6.57581 101.437 6.73983 101.766 7.06786C102.094 7.39672 102.259 7.79586 102.259 8.26531C102.259 8.73393 102.098 9.13266 101.777 9.46152C101.456 9.79038 101.06 9.95481 100.59 9.95481C100.121 9.95481 99.7215 9.79038 99.3921 9.46152C99.0627 9.13266 98.8981 8.73393 98.8981 8.26531C98.8981 7.81149 99.0627 7.41644 99.3921 7.08019ZM99.0969 10.9438C99.0969 10.7749 99.234 10.638 99.402 10.638H99.9331C100.707 10.638 101.276 10.8209 101.639 11.1868C102.003 11.5518 102.185 12.131 102.185 12.9244V19.3371C102.185 19.5393 102.076 19.6405 101.86 19.6405H99.402C99.234 19.6405 99.0969 19.5036 99.0969 19.3359V10.9438Z" fill="#6AB33F"/>
<path fill-rule="evenodd" clip-rule="evenodd" d="M109.719 6.89763C109.719 6.67812 109.819 6.56836 110.02 6.56836H110.555C111.329 6.56836 111.897 6.75252 112.26 7.12084C112.624 7.48916 112.806 8.07329 112.806 8.87323V19.3358C112.806 19.5035 112.669 19.6404 112.501 19.6404H110.024C109.856 19.6404 109.719 19.5035 109.719 19.3358V18.9116C109.115 19.5232 108.318 19.8291 107.328 19.8291C106.213 19.8291 105.293 19.4057 104.565 18.5589C103.776 17.6504 103.381 16.4752 103.381 15.0331C103.381 13.795 103.706 12.7447 104.356 11.8823C105.13 10.8168 106.19 10.2836 107.536 10.2828C108.481 10.2836 109.208 10.5582 109.719 11.1066V6.89763ZM109.238 16.4415C109.52 16.1052 109.661 15.6399 109.661 15.0455C109.661 13.8254 109.144 13.2154 108.111 13.2154C107.014 13.2154 106.465 13.8254 106.465 15.0455C106.465 15.6242 106.61 16.0855 106.9 16.4291C107.19 16.7736 107.593 16.9458 108.111 16.9458C108.58 16.9458 108.956 16.7777 109.238 16.4415Z" fill="#6AB33F"/>
<path d="M114.337 7.08019C114.666 6.74393 115.066 6.57581 115.536 6.57581C115.989 6.57581 116.381 6.73983 116.71 7.06786C117.039 7.39672 117.203 7.79586 117.203 8.26531C117.203 8.73393 117.043 9.13266 116.721 9.46152C116.4 9.79038 116.005 9.95481 115.536 9.95481C115.066 9.95481 114.666 9.79038 114.337 9.46152C114.008 9.13266 113.844 8.73393 113.844 8.26531C113.844 7.81149 114.008 7.41644 114.337 7.08019ZM114.041 10.9438C114.041 10.7749 114.178 10.638 114.346 10.638H114.877C115.651 10.638 116.22 10.8209 116.583 11.1868C116.947 11.5518 117.129 12.131 117.129 12.9244V19.3371C117.129 19.5393 117.021 19.6405 116.804 19.6405H114.346C114.178 19.6405 114.041 19.5036 114.041 19.3359V10.9438Z" fill="#6AB33F"/>
<path fill-rule="evenodd" clip-rule="evenodd" d="M119.647 18.6823C118.676 17.8067 118.19 16.5944 118.19 15.0455C118.19 13.7161 118.558 12.6292 119.295 11.7849C120.157 10.7992 121.363 10.3063 122.914 10.3063C124.261 10.3063 125.357 10.6894 126.203 11.4556C127.175 12.332 127.66 13.5365 127.66 15.0689C127.66 16.4148 127.292 17.5099 126.556 18.3542C125.71 19.34 124.511 19.8328 122.961 19.8328C121.597 19.8328 120.493 19.4493 119.647 18.6823ZM124.488 15.0924C124.488 13.763 123.971 13.0983 122.937 13.0983C121.888 13.0983 121.363 13.763 121.363 15.0924C121.363 16.4062 121.88 17.063 122.914 17.063C123.963 17.063 124.488 16.4062 124.488 15.0924Z" fill="#6AB33F"/>
<path d="M133.87 10.4049C134.959 10.4049 135.826 10.6927 136.473 11.2682C137.245 11.9678 137.631 13.0329 137.631 14.4634V19.3371C137.631 19.5393 137.521 19.6404 137.3 19.6404H134.725C134.557 19.6404 134.42 19.5048 134.42 19.3358V14.9012C134.42 13.7592 133.992 13.1883 133.136 13.1883C132.263 13.1883 131.826 13.7202 131.826 14.784V19.3358C131.826 19.5048 131.689 19.6404 131.521 19.6404H129.044C128.876 19.6404 128.739 19.5048 128.739 19.3358V10.9438C128.739 10.7749 128.876 10.638 129.044 10.638H129.519C130.497 10.638 131.151 10.9257 131.482 11.5012C132.176 10.7704 132.972 10.4049 133.87 10.4049Z" fill="#6AB33F"/>
<path fill-rule="evenodd" clip-rule="evenodd" d="M142.69 19.8277C141.466 19.8277 140.491 19.4154 139.764 18.5908C138.975 17.7202 138.581 16.5462 138.581 15.0688C138.581 13.8257 138.906 12.7762 139.555 11.9204C140.329 10.8944 141.389 10.3813 142.736 10.3813C143.881 10.3813 144.771 10.7234 145.406 11.4074C145.716 10.8944 146.35 10.6379 147.309 10.6379H147.701C147.869 10.6379 148.006 10.7747 148.006 10.9437V19.3357C148.006 19.5034 147.869 19.6403 147.701 19.6403H145.223C145.055 19.6403 144.918 19.5034 144.918 19.3357V18.9879C144.315 19.5478 143.572 19.8277 142.69 19.8277ZM144.544 16.4303C144.818 16.0858 144.955 15.6241 144.955 15.0454C144.955 13.8409 144.438 13.2387 143.404 13.2387C142.887 13.2387 142.483 13.399 142.194 13.7197C141.904 14.0403 141.759 14.4822 141.759 15.0454C141.759 15.6241 141.908 16.0858 142.206 16.4303C142.503 16.7739 142.902 16.9457 143.404 16.9457C143.89 16.9457 144.27 16.7739 144.544 16.4303Z" fill="#6AB33F"/>
<path d="M150.23 19.1212C149.653 18.5737 149.364 17.7289 149.364 16.587V6.89763C149.364 6.67812 149.466 6.56836 149.668 6.56836H150.207C150.986 6.56836 151.555 6.75211 151.913 7.11961C152.272 7.4871 152.452 8.07 152.452 8.8683V16.2355C152.452 16.8768 152.701 17.1974 153.2 17.1974C153.481 17.1974 153.793 17.0646 154.137 16.7991C154.245 16.721 154.347 16.6815 154.44 16.6807C154.627 16.6815 154.721 16.8303 154.721 17.1271C154.721 17.7684 154.55 18.3316 154.207 18.8166C153.723 19.4735 153.021 19.802 152.101 19.802C151.321 19.802 150.698 19.575 150.23 19.1212Z" fill="#6AB33F"/>
<path d="M67.6459 29.4433C67.7167 29.4433 67.776 29.4671 67.8237 29.5148C68.7237 30.3189 69.7599 30.7209 70.9324 30.7209C72.1164 30.7209 72.7084 30.3719 72.7084 29.6739C72.7084 29.4141 72.5899 29.2045 72.3527 29.045C72.1156 28.8855 71.6479 28.6931 70.9497 28.4678C70.0374 28.1842 69.3861 27.9182 68.9958 27.67C68.1312 27.1265 67.699 26.3401 67.699 25.3108C67.699 24.4484 68.0069 23.757 68.6228 23.2366C69.2856 22.6923 70.1679 22.4202 71.2696 22.4202C72.1341 22.4202 72.9217 22.5324 73.6323 22.7568C74.011 22.8876 74.2597 23.0709 74.3782 23.3068C74.496 23.5436 74.5075 23.8688 74.4128 24.2823L74.3066 24.7078C74.2712 24.8615 74.2004 24.9384 74.0942 24.9384C74.011 24.9384 73.9101 24.9088 73.7916 24.8496C72.9978 24.4714 72.1749 24.2823 71.3227 24.2823C70.3396 24.2823 69.848 24.5898 69.848 25.2048C69.848 25.4769 69.9694 25.6985 70.2123 25.8695C70.4552 26.0413 70.9262 26.2337 71.6253 26.4466C72.5483 26.7302 73.1996 26.9843 73.5792 27.2087C74.4429 27.7291 74.8747 28.4978 74.8747 29.5148C74.8747 30.4011 74.5907 31.1221 74.0225 31.6779C73.3597 32.3167 72.4067 32.6361 71.1634 32.6361C70.0263 32.6361 69.1144 32.3759 68.4277 31.8555C67.7286 31.3235 67.3791 30.6556 67.3791 29.8515C67.3791 29.5794 67.468 29.4433 67.6459 29.4433Z" fill="#C7C7C7"/>
<path d="M85.3617 30.4927C86.2024 30.4927 86.6227 30.8606 86.6227 31.5964V32.1649C86.6227 32.3655 86.5289 32.4658 86.3412 32.4658H80.6783C80.5511 32.4658 80.4474 32.3634 80.4474 32.2352V22.8307C80.4474 22.7037 80.5511 22.6001 80.6783 22.6001H85.2691C86.0892 22.6001 86.4992 23.0046 86.4992 23.8136V24.2662C86.4992 24.4709 86.4058 24.5732 86.2189 24.5732H82.547V26.5464H84.906C85.7212 26.5464 86.1287 26.9546 86.1287 27.771V28.2359C86.1287 28.3925 86.0015 28.5195 85.8447 28.5195H82.4235V30.4927H85.3617Z" fill="#C7C7C7"/>
<path d="M98.3558 28.8895H97.537C96.6831 28.8895 96.2562 28.4875 96.2562 27.6834V27.2272C96.2562 27.02 96.3538 26.9164 96.5489 26.9164H100.05C100.238 26.9164 100.332 27.02 100.332 27.2272V30.9724C100.332 31.3013 100.197 31.5631 99.9269 31.758C99.3974 32.1477 98.8886 32.4219 98.4003 32.5805C97.9121 32.7384 97.3386 32.8173 96.6799 32.8173C95.3625 32.8181 94.2863 32.4774 93.4514 31.795C92.3571 30.8939 91.81 29.4687 91.81 27.5194C91.81 26.0092 92.1982 24.7912 92.9746 23.8654C93.868 22.818 95.1323 22.2943 96.7675 22.2943C97.6148 22.2943 98.3855 22.4102 99.0796 22.6421C99.4674 22.7761 99.7202 22.9648 99.8379 23.2081C99.9557 23.4515 99.9614 23.7865 99.8552 24.2132L99.7317 24.7237C99.6963 24.8824 99.6202 24.9617 99.5032 24.9617C99.4324 24.9617 99.3381 24.9313 99.2204 24.8705C98.4439 24.5055 97.6852 24.3229 96.9442 24.3229C94.9796 24.3229 93.9977 25.4374 93.9985 27.6662C93.9977 28.5919 94.1974 29.3286 94.5975 29.8761C95.0677 30.4976 95.7498 30.8084 96.644 30.8084C97.2673 30.8084 97.8379 30.6501 98.3558 30.3336V28.8895Z" fill="#C7C7C7"/>
<path d="M107.019 31.3436C106.513 30.6817 106.26 29.8304 106.26 28.7896V22.8307C106.26 22.7037 106.364 22.6001 106.491 22.6001H106.553C107.15 22.6001 107.58 22.7419 107.843 23.0255C108.105 23.31 108.236 23.7655 108.236 24.392V28.3641C108.236 29.913 108.828 30.6875 110.01 30.6875C111.215 30.6875 111.818 29.9192 111.818 28.3826V22.8307C111.818 22.7037 111.922 22.6001 112.049 22.6001H112.259C112.847 22.6001 113.271 22.7419 113.53 23.0255C113.789 23.31 113.918 23.7655 113.918 24.392V28.7896C113.918 29.6528 113.735 30.3977 113.371 31.0242C112.736 32.1004 111.636 32.6384 110.072 32.6384C108.684 32.6384 107.666 32.2068 107.019 31.3436Z" fill="#C7C7C7"/>
<path fill-rule="evenodd" clip-rule="evenodd" d="M121.946 32.2352C121.946 32.3634 121.842 32.4658 121.715 32.4658H120.201C120.073 32.4658 119.97 32.3634 119.97 32.2352V22.8307C119.97 22.7037 120.073 22.6001 120.201 22.6001H123.63C124.827 22.6001 125.745 22.8665 126.385 23.3992C127.06 23.955 127.397 24.771 127.397 25.8471C127.397 26.569 127.226 27.1992 126.882 27.7377C126.539 28.2762 126.059 28.6696 125.443 28.9178L127.452 32.2352C127.499 32.2944 127.507 32.3478 127.478 32.3955C127.448 32.4424 127.398 32.4658 127.327 32.4658H125.331C125.122 32.4658 124.977 32.3906 124.895 32.2401L123.272 29.2594H121.946V32.2352ZM123.698 27.2863C124.681 27.2863 125.172 26.8197 125.172 25.8866C125.172 25.478 125.043 25.157 124.785 24.9235C124.528 24.69 124.166 24.5732 123.698 24.5732H121.946V27.2863H123.698Z" fill="#C7C7C7"/>
<path fill-rule="evenodd" clip-rule="evenodd" d="M134.289 31.43C133.354 30.5314 132.886 29.2365 132.886 27.5454C132.886 26.0795 133.253 24.8973 133.986 23.9987C134.839 22.9463 136.054 22.4202 137.629 22.4202C139.014 22.4202 140.126 22.8222 140.967 23.6262C141.915 24.5487 142.389 25.8551 142.389 27.5454C142.389 29.0121 142.028 30.1886 141.305 31.0748C140.452 32.1157 139.227 32.6361 137.629 32.6361C136.231 32.6361 135.117 32.2341 134.289 31.43ZM140.221 27.5454C140.221 25.453 139.357 24.4069 137.629 24.4069C135.9 24.4069 135.035 25.453 135.035 27.5454C135.035 29.6147 135.9 30.6494 137.629 30.6494C139.357 30.6494 140.221 29.6147 140.221 27.5454Z" fill="#C7C7C7"/>
<path d="M147.771 29.4433C147.842 29.4433 147.901 29.4671 147.948 29.5148C148.848 30.3189 149.884 30.7209 151.056 30.7209C152.24 30.7209 152.832 30.3719 152.832 29.6739C152.832 29.4141 152.714 29.2045 152.478 29.045C152.241 28.8855 151.773 28.6931 151.074 28.4678C150.162 28.1842 149.511 27.9182 149.12 27.67C148.256 27.1265 147.824 26.3401 147.824 25.3108C147.824 24.4484 148.132 23.757 148.747 23.2366C149.41 22.6923 150.293 22.4202 151.394 22.4202C152.258 22.4202 153.046 22.5324 153.756 22.7568C154.135 22.8876 154.384 23.0709 154.502 23.3068C154.621 23.5436 154.633 23.8688 154.538 24.2823L154.431 24.7078C154.395 24.8615 154.324 24.9384 154.218 24.9384C154.135 24.9384 154.035 24.9088 153.917 24.8496C153.123 24.4714 152.3 24.2823 151.448 24.2823C150.465 24.2823 149.973 24.5898 149.973 25.2048C149.973 25.4769 150.095 25.6985 150.338 25.8695C150.58 26.0413 151.05 26.2337 151.749 26.4466C152.673 26.7302 153.324 26.9843 153.703 27.2087C154.568 27.7291 155 28.4978 155 29.5148C155 30.4011 154.716 31.1221 154.147 31.6779C153.484 32.3167 152.531 32.6361 151.287 32.6361C150.15 32.6361 149.238 32.3759 148.552 31.8555C147.853 31.3235 147.504 30.6556 147.504 29.8515C147.504 29.5794 147.593 29.4433 147.771 29.4433Z" fill="#C7C7C7"/>
<path d="M58.1012 30.817L51.1996 4.25608C50.7908 2.68374 49.7299 1.3864 48.2787 0.673604C46.5113 -0.193344 44.4253 -0.125518 42.7159 0.824055C42.6356 0.868451 42.5714 0.917778 42.5035 0.946142C42.4269 0.979439 42.3602 1.03123 42.3009 1.09166C42.2812 1.11139 42.2577 1.13071 42.2305 1.14962C41.2104 1.87228 40.4928 2.88845 40.1433 4.09083L39.0959 7.69181L33.1429 29.1078C32.9836 29.68 32.1697 29.6787 32.0116 29.1065L25.0742 4.02794C24.6851 2.63071 23.7452 1.48012 22.4892 0.768559C20.5909 -0.306801 18.2269 -0.247606 16.399 0.907913C15.2134 1.65647 14.3933 2.85392 14.0215 4.20675L13.4855 6.15646L6.77535 31.9096C6.29985 33.6928 4.467 34.7534 2.68232 34.2786C1.21259 33.8877 0.234413 32.5793 0.198596 31.1339L0.199828 31.1278V30.9576L0.135606 31.2178L0.136842 31.219C-0.612846 34.3662 1.82642 37.5923 4.80171 38.2903C8.13516 39.0721 11.3982 37.1236 12.3011 33.8507L12.8099 32.0083L19.0692 9.26909C19.2273 8.69441 20.045 8.69441 20.2018 9.27032L26.471 32.2833L27.0318 34.3058C27.3776 35.5562 28.0989 36.6217 29.1338 37.3888C29.1647 37.411 29.5081 37.6515 29.5501 37.6761C30.3652 38.1719 31.2298 38.4382 32.1993 38.4999C34.8053 38.6639 37.2853 37.0657 38.0066 34.524L45.3713 8.58712C45.5344 8.01244 46.3532 8.02108 46.5039 8.59945L47.3326 11.7799L47.3376 11.7972L52.5175 31.7037C52.9806 33.5325 51.8703 35.3897 50.0387 35.8522C48.2836 36.2949 46.5039 35.296 45.9506 33.6028L46 33.7915C46.0535 34.0003 46.1239 34.1993 46.2112 34.3884C47.3721 37.3481 50.5537 39.0857 53.671 38.2434C56.8365 37.3888 58.9509 34.0887 58.1012 30.817Z" fill="#6AB33F"/>
<path fill-rule="evenodd" clip-rule="evenodd" d="M15.9865 1.09166C16.0055 1.11057 16.0281 1.12907 16.0545 1.14716C15.054 1.89942 14.355 2.98957 14.0215 4.20676L13.4855 6.15646L12.8778 8.48723C12.8778 8.48559 12.8774 8.48435 12.8766 8.48353L12.9235 8.30102C13.0125 7.96189 12.8087 7.61412 12.4678 7.52533C12.1282 7.43654 11.7799 7.64125 11.6922 7.98038L6.27392 28.7612C6.18623 29.1004 6.39002 29.4481 6.72967 29.5357C7.07055 29.6245 7.4176 29.421 7.50652 29.0819L7.64238 28.5615H7.64732L6.77536 31.9096C6.29986 33.6929 4.46701 34.7534 2.68233 34.2786C1.2126 33.8877 0.234425 32.5793 0.198608 31.1339L0.199841 31.1278V30.9662C0.211368 30.912 0.224134 30.8577 0.238132 30.8034L7.08784 4.25608C7.49664 2.68374 8.55757 1.3864 10.0088 0.673604C11.7762 -0.193344 13.8622 -0.125518 15.5715 0.824056C15.6518 0.868451 15.716 0.917778 15.784 0.946142C15.8605 0.979439 15.9285 1.03123 15.9865 1.09166ZM42.2306 1.14962C41.2104 1.87228 40.4928 2.88845 40.1433 4.09083L39.0959 7.69181L38.7847 8.81403L38.9132 8.33925C39.0083 8.00012 38.8094 7.64988 38.4698 7.55616C38.1314 7.46243 37.7806 7.66098 37.6867 7.99888L32.0276 28.7612C31.9461 29.0757 32.1153 29.3976 32.413 29.5135C32.2314 29.4617 32.0733 29.3273 32.0116 29.1065L29.1437 18.7389L33.2133 4.02794C33.6023 2.63071 34.5422 1.48012 35.7995 0.76856C37.6966 -0.306801 40.0618 -0.247606 41.8884 0.907913C42.007 0.98355 42.1219 1.0633 42.233 1.14716C42.2322 1.14798 42.2314 1.1488 42.2306 1.14962ZM52.5175 31.7037C52.9806 33.5325 51.8703 35.3897 50.0387 35.8522C48.2836 36.2949 46.5039 35.296 45.9506 33.6028L46 33.7915L42.1589 19.9018L45.2787 8.91269L50.5204 29.0806C50.608 29.421 50.9563 29.6245 51.296 29.5369C51.6331 29.4494 51.8369 29.1065 51.7542 28.7699L52.5175 31.7037ZM46.2112 34.3896C46.2919 34.5927 46.3812 34.7896 46.4792 34.9803C46.3335 34.7148 46.2087 34.4311 46.105 34.1294C46.1371 34.2182 46.1725 34.3049 46.2112 34.3896ZM29.1339 37.3888C29.1363 37.3904 29.1396 37.3929 29.1437 37.3962C29.0795 37.4418 28.7769 37.6539 28.7386 37.6774C27.9223 38.1731 27.0577 38.4395 26.0882 38.4999C23.4822 38.6639 21.0034 37.0669 20.2809 34.5253L16.136 19.9265L18.9729 9.62179L24.2714 29.0584C24.364 29.3963 24.7148 29.5961 25.0532 29.5036C25.3928 29.4124 25.5929 29.0621 25.5003 28.723L25.4558 28.5615H25.4571L26.471 32.2845L27.0318 34.307C27.3776 35.5575 28.0989 36.623 29.1339 37.3888Z" fill="#C7C7C7"/>
</svg>
